<svg xmlns="http://www.w3.org/2000/svg" width="138.977" height="41.973" viewBox="0 0 138.977 41.973">
  <g id="logo" transform="translate(-162 -153)">
    <path id="Caminho_27" data-name="Caminho 27" d="M14.246-114.586a14.721,14.721,0,0,1-4.081-.555,11.382,11.382,0,0,1-3.454-1.629,7.944,7.944,0,0,1-2.4-2.649,7.66,7.66,0,0,1-.913-3.651.79.79,0,0,1,.215-.555.7.7,0,0,1,.537-.233h6.085a1.2,1.2,0,0,1,.841.251,2.166,2.166,0,0,1,.483.823,4.2,4.2,0,0,0,.626,1.2,2.125,2.125,0,0,0,.949.7,3.76,3.76,0,0,0,1.324.215,2.7,2.7,0,0,0,2.166-.895,4.283,4.283,0,0,0,.77-2.828V-133.7H13.423a.9.9,0,0,1-.662-.268.9.9,0,0,1-.268-.662v-4.439a.9.9,0,0,1,.268-.662.9.9,0,0,1,.662-.268H24.412a.9.9,0,0,1,.662.268.9.9,0,0,1,.268.662v14.927a9.235,9.235,0,0,1-1.45,5.316,8.777,8.777,0,0,1-3.973,3.186A14.57,14.57,0,0,1,14.246-114.586Zm20.69,0a8.009,8.009,0,0,1-3.526-.752,6.1,6.1,0,0,1-2.434-2.022,4.895,4.895,0,0,1-.877-2.846,4.718,4.718,0,0,1,2.094-4.063,13.322,13.322,0,0,1,5.6-2.058l4.152-.644v-.251a3.108,3.108,0,0,0-.358-1.664,1.585,1.585,0,0,0-1.432-.555,2.3,2.3,0,0,0-1.217.286,3.093,3.093,0,0,0-.859.823,1.2,1.2,0,0,1-.931.394H30.1a.837.837,0,0,1-.591-.215.647.647,0,0,1-.2-.573,3.6,3.6,0,0,1,.537-1.521,6.2,6.2,0,0,1,1.557-1.718,8.779,8.779,0,0,1,2.738-1.4,12.991,12.991,0,0,1,4.045-.555,13.894,13.894,0,0,1,4.116.537,7.775,7.775,0,0,1,2.828,1.5,5.907,5.907,0,0,1,1.647,2.345,8.366,8.366,0,0,1,.537,3.06v10.6a.9.9,0,0,1-.268.662.9.9,0,0,1-.662.268H41.2a.961.961,0,0,1-.68-.268.872.872,0,0,1-.286-.662v-1.145A4.56,4.56,0,0,1,39-115.767a6.555,6.555,0,0,1-1.79.859A7.526,7.526,0,0,1,34.935-114.586Zm2.076-4.689a3.2,3.2,0,0,0,1.575-.376,2.519,2.519,0,0,0,1.056-1.163,4.562,4.562,0,0,0,.376-1.969v-.251l-2.577.5a4.068,4.068,0,0,0-1.861.716,1.39,1.39,0,0,0-.537,1.074,1.189,1.189,0,0,0,.251.752,1.759,1.759,0,0,0,.7.519A2.51,2.51,0,0,0,37.012-119.275Zm22.05,4.689a14.49,14.49,0,0,1-4.152-.519,9.473,9.473,0,0,1-2.81-1.307,5.664,5.664,0,0,1-1.593-1.629,3.373,3.373,0,0,1-.537-1.485.791.791,0,0,1,.233-.662.821.821,0,0,1,.591-.268h5.19a.49.49,0,0,1,.107.018.317.317,0,0,1,.143.089,2.711,2.711,0,0,1,.877.465,5.1,5.1,0,0,0,.931.573,2.815,2.815,0,0,0,1.235.251,2.21,2.21,0,0,0,1.092-.268.841.841,0,0,0,.483-.77,1.139,1.139,0,0,0-.268-.752,2.684,2.684,0,0,0-1.128-.626,20.451,20.451,0,0,0-2.756-.662,13.646,13.646,0,0,1-3.2-1.056,5.87,5.87,0,0,1-2.291-1.879,4.869,4.869,0,0,1-.841-2.9,4.817,4.817,0,0,1,.966-2.828,7,7,0,0,1,2.882-2.237,11.276,11.276,0,0,1,4.707-.877,12.731,12.731,0,0,1,3.741.5,10.544,10.544,0,0,1,2.756,1.253,6.252,6.252,0,0,1,1.718,1.611,3.111,3.111,0,0,1,.626,1.539.818.818,0,0,1-.215.662.765.765,0,0,1-.573.268H62.283a1.652,1.652,0,0,1-.233-.018.337.337,0,0,1-.2-.089,2.345,2.345,0,0,1-.913-.412,9.251,9.251,0,0,0-.877-.573,2.339,2.339,0,0,0-1.181-.268,1.581,1.581,0,0,0-.984.286.9.9,0,0,0-.376.752,1.138,1.138,0,0,0,.251.716,2.451,2.451,0,0,0,1.145.609,22.124,22.124,0,0,0,2.828.609,11.061,11.061,0,0,1,4.009,1.307,5.652,5.652,0,0,1,2.148,2.13,5.162,5.162,0,0,1,.644,2.434,4.938,4.938,0,0,1-1.092,3.186,6.872,6.872,0,0,1-3.222,2.094A15.98,15.98,0,0,1,59.061-114.586Zm21.62,0a13.464,13.464,0,0,1-5.316-.931,7.123,7.123,0,0,1-3.311-2.738,8.925,8.925,0,0,1-1.289-4.349q-.036-.752-.036-1.647t.036-1.647a8.445,8.445,0,0,1,1.36-4.367,7.608,7.608,0,0,1,3.383-2.72,13.05,13.05,0,0,1,5.172-.931,13.05,13.05,0,0,1,5.172.931,7.608,7.608,0,0,1,3.383,2.72A8.445,8.445,0,0,1,90.6-125.9q.072.752.072,1.647T90.6-122.6a8.925,8.925,0,0,1-1.289,4.349A7.123,7.123,0,0,1,86-115.516,13.463,13.463,0,0,1,80.681-114.586Zm0-5.047a2,2,0,0,0,1.826-.787,4.887,4.887,0,0,0,.573-2.362q.036-.537.036-1.468t-.036-1.468a4.922,4.922,0,0,0-.573-2.345,1.977,1.977,0,0,0-1.826-.805,1.938,1.938,0,0,0-1.79.805,5.178,5.178,0,0,0-.609,2.345q-.036.537-.036,1.468t.036,1.468a5.13,5.13,0,0,0,.609,2.362A1.955,1.955,0,0,0,80.681-119.633Zm14,4.689a.9.9,0,0,1-.662-.268.9.9,0,0,1-.268-.662v-16.752a.9.9,0,0,1,.268-.662.9.9,0,0,1,.662-.268h5.19a.9.9,0,0,1,.662.268.9.9,0,0,1,.268.662v1.289a7.658,7.658,0,0,1,2.47-1.826,7.893,7.893,0,0,1,3.508-.752,6.975,6.975,0,0,1,3.508.895,6.59,6.59,0,0,1,2.541,2.685,9.421,9.421,0,0,1,.966,4.51v9.951a.872.872,0,0,1-.286.662.961.961,0,0,1-.68.268H107.17a.9.9,0,0,1-.662-.268.9.9,0,0,1-.268-.662v-9.7a2.948,2.948,0,0,0-.644-2.04,2.329,2.329,0,0,0-1.826-.716,2.445,2.445,0,0,0-1.861.716,2.848,2.848,0,0,0-.68,2.04v9.7a.9.9,0,0,1-.268.662.9.9,0,0,1-.662.268Z" transform="translate(172.453 302.486)" fill="#fff"/>
    <path id="Caminho_23" data-name="Caminho 23" d="M37.63,18.616l-.145-.035A3.318,3.318,0,0,1,36.8,18l-.064-.064a4.216,4.216,0,0,1-.759-1.245,5.374,5.374,0,0,1-.336-2.056V5.893c0-.579-.046-1.118-.087-1.569a5.884,5.884,0,0,0-.5-1.929l-.081-.162A5.253,5.253,0,0,0,33.779.773l-.232-.2A4.315,4.315,0,0,0,31.2,0H28.52V4.051h2.826l.052.075a1.853,1.853,0,0,1,.127.579c.041.417.075.811.075,1.216v8.7a9.359,9.359,0,0,0,.672,3.666,8.34,8.34,0,0,0,1.581,2.467l.133.145-.11.116a7.083,7.083,0,0,0-1.6,2.577,9.845,9.845,0,0,0-.654,3.793v8.641c0,.411-.035.846-.075,1.257a1.818,1.818,0,0,1-.127.51l-.081.116H28.52v4.054H31.2a4.361,4.361,0,0,0,2.351-.637l.243-.18a5.241,5.241,0,0,0,1.2-1.459l.081-.162a5.936,5.936,0,0,0,.492-1.882c.046-.481.093-1.048.093-1.627V27.384A6.075,6.075,0,0,1,36,25.132a3.475,3.475,0,0,1,.683-1.193l.122-.127a1.992,1.992,0,0,1,.678-.527l.185-.035c1.662-.307,2.114-1.274,2.2-2.039C39.946,20.6,39.865,19.138,37.63,18.616Z" transform="translate(261.089 153.007)" fill="#fff"/>
    <path id="Caminho_24" data-name="Caminho 24" d="M6.363.577,6.12.757A5.253,5.253,0,0,0,4.9,2.234l-.081.156a5.826,5.826,0,0,0-.5,1.917c-.041.463-.093.99-.093,1.581v8.733a5.369,5.369,0,0,1-.319,2.015,4.361,4.361,0,0,1-.776,1.28l-.064.064a3.353,3.353,0,0,1-.689.579l-.133.029C-.008,19.144-.06,20.6-.008,21.206c.087.764.533,1.737,2.2,2.039l.191.035a1.929,1.929,0,0,1,.683.527l.122.127a3.544,3.544,0,0,1,.695,1.228A6.069,6.069,0,0,1,4.22,27.38v8.646c0,.579.046,1.158.093,1.627a5.913,5.913,0,0,0,.5,1.876l.081.162a5.241,5.241,0,0,0,1.193,1.459l.243.18a4.361,4.361,0,0,0,2.351.637h2.676V37.914H8.569L8.488,37.8a1.807,1.807,0,0,1-.127-.5c-.035-.394-.075-.846-.075-1.257V27.385a9.8,9.8,0,0,0-.637-3.759,7.129,7.129,0,0,0-1.639-2.612L5.9,20.9l.133-.145a8.4,8.4,0,0,0,1.6-2.508,9.341,9.341,0,0,0,.654-3.625V5.894c0-.405.035-.8.075-1.228a1.79,1.79,0,0,1,.122-.533l.058-.081h2.826V0H8.679A4.315,4.315,0,0,0,6.363.577Z" transform="translate(162.018 153.005)" fill="#fff"/>
    <path id="Caminho_28" data-name="Caminho 28" d="M3.878-24.211h-2v-5.207H3.858a2.921,2.921,0,0,1,1.389.311,2.173,2.173,0,0,1,.905.895,2.871,2.871,0,0,1,.319,1.4,2.881,2.881,0,0,1-.318,1.4,2.171,2.171,0,0,1-.9.895A2.875,2.875,0,0,1,3.878-24.211Zm-.59-1.2h.539a1.583,1.583,0,0,0,.66-.125.846.846,0,0,0,.417-.43,2.036,2.036,0,0,0,.144-.849,2,2,0,0,0-.146-.849.851.851,0,0,0-.427-.43,1.694,1.694,0,0,0-.688-.125h-.5Zm6.082,1.2v-5.207h3.752v1.139H10.784v.895h2.146v1.139H10.784v.895h2.329v1.139ZM17.5-29.417l1.068,3.671H18.6l1.068-3.671h1.6L19.55-24.211H17.618L15.9-29.417Zm6.519,5.207v-5.207h3.752v1.139H25.428v.895h2.146v1.139H25.428v.895h2.329v1.139Zm6.7,0v-5.207H32.13v4.068h2.1v1.139Zm11.176-2.6a2.931,2.931,0,0,1-.338,1.466,2.259,2.259,0,0,1-.913.9,2.68,2.68,0,0,1-1.281.306,2.665,2.665,0,0,1-1.285-.309,2.27,2.27,0,0,1-.91-.905,2.929,2.929,0,0,1-.337-1.461,2.94,2.94,0,0,1,.337-1.466,2.253,2.253,0,0,1,.91-.9,2.683,2.683,0,0,1,1.285-.306,2.68,2.68,0,0,1,1.281.306,2.259,2.259,0,0,1,.913.9A2.931,2.931,0,0,1,41.893-26.814Zm-1.454,0a2.215,2.215,0,0,0-.123-.789,1.015,1.015,0,0,0-.364-.488,1.012,1.012,0,0,0-.591-.167,1.012,1.012,0,0,0-.591.167,1.015,1.015,0,0,0-.364.488,2.215,2.215,0,0,0-.123.789,2.215,2.215,0,0,0,.123.789,1.015,1.015,0,0,0,.364.488,1.012,1.012,0,0,0,.591.167,1.012,1.012,0,0,0,.591-.167,1.015,1.015,0,0,0,.364-.488A2.215,2.215,0,0,0,40.439-26.814Zm4.353,2.6v-5.207h2.247a2.147,2.147,0,0,1,1.014.229,1.661,1.661,0,0,1,.676.643,1.889,1.889,0,0,1,.242.969,1.834,1.834,0,0,1-.248.969,1.647,1.647,0,0,1-.694.63,2.317,2.317,0,0,1-1.041.221H45.646v-1.1H46.7a.949.949,0,0,0,.426-.088.634.634,0,0,0,.272-.25.746.746,0,0,0,.1-.384.73.73,0,0,0-.1-.383.625.625,0,0,0-.272-.244.973.973,0,0,0-.426-.085h-.5v4.078Zm6.946,0v-5.207H55.49v1.139H53.151v.895H55.3v1.139H53.151v.895H55.48v1.139Zm6.7,0v-5.207h2.247a2.3,2.3,0,0,1,1.014.211,1.58,1.58,0,0,1,.676.608,1.794,1.794,0,0,1,.242.951,1.7,1.7,0,0,1-.248.943,1.539,1.539,0,0,1-.694.58,2.573,2.573,0,0,1-1.041.2H59.294v-1.1h1.058a1.286,1.286,0,0,0,.426-.062.537.537,0,0,0,.272-.2.616.616,0,0,0,.1-.358.639.639,0,0,0-.1-.365.557.557,0,0,0-.272-.208,1.2,1.2,0,0,0-.426-.067h-.5v4.078ZM61.49-26.6l1.3,2.39H61.257L59.985-26.6Z" transform="translate(223.102 190.992)" fill="#fff"/>
    <circle id="Elipse_9" data-name="Elipse 9" cx="1.611" cy="1.611" r="1.611" transform="translate(219.988 163.381)" fill="#fff"/>
  </g>
</svg>
