<svg xmlns="http://www.w3.org/2000/svg" xmlns:xlink="http://www.w3.org/1999/xlink" width="98.44" height="67.501" viewBox="0 0 98.44 67.501">
  <defs>
    <clipPath id="clip-path">
      <path id="path18" d="M48.7-343.926s4.771-5.238,8.076-7.409c1.053-.691,8.883-4.778,13.912,9.288,2.751,7.7,2.8,13.438-3.456,15.885-3.744,1.465-2.406,4.209-2.406,4.209" transform="translate(-48.702 352.415)"/>
    </clipPath>
    <linearGradient id="linear-gradient" x1="-0.576" y1="3.254" x2="-0.575" y2="3.254" gradientUnits="objectBoundingBox">
      <stop offset="0" stop-color="#8c9bd6"/>
      <stop offset="1" stop-color="#505e9b"/>
    </linearGradient>
    <clipPath id="clip-path-2">
      <path id="path36" d="M276.825-311.447h10.021a1.4,1.4,0,0,1,1.522,1.233h0a1.4,1.4,0,0,1-1.522,1.233H278.98Z" transform="translate(-276.825 311.447)"/>
    </clipPath>
    <linearGradient id="linear-gradient-2" x1="-6.745" y1="35.518" x2="-6.742" y2="35.518" gradientUnits="objectBoundingBox">
      <stop offset="0" stop-color="#808fd0"/>
      <stop offset="1" stop-color="#505e9b"/>
    </linearGradient>
    <clipPath id="clip-path-3">
      <path id="path66" d="M96.864-224.832v19.854c0,4.9-4.9,6.65-10.937,6.65h0c-6.041,0-10.936-1.755-10.936-6.65v-20.088" transform="translate(-74.99 225.066)"/>
    </clipPath>
    <linearGradient id="linear-gradient-3" x1="-0.964" y1="2.367" x2="-0.963" y2="2.367" xlink:href="#linear-gradient"/>
    <clipPath id="clip-path-4">
      <path id="path96" d="M215.827-223.97v19.853c0,4.9-4.9,6.65-10.937,6.65h0c-6.041,0-10.938-1.754-10.938-6.65V-224.2" transform="translate(-193.952 224.204)"/>
    </clipPath>
    <linearGradient id="linear-gradient-4" x1="-2.494" y1="2.358" x2="-2.492" y2="2.358" xlink:href="#linear-gradient"/>
    <clipPath id="clip-path-5">
      <path id="path126" d="M110.05-320.641c4.26,6.87,3.806,12.673-1.87,15.715-3.4,1.822-1.527,4.225-1.527,4.225" transform="translate(-106.139 320.641)"/>
    </clipPath>
    <linearGradient id="linear-gradient-5" x1="-4.421" y1="4.523" x2="-4.415" y2="4.523" xlink:href="#linear-gradient-2"/>
    <clipPath id="clip-path-6">
      <path id="path144" d="M60.712-337.963s-7.072-.083-32.913.767S2.914-327.157,2.874-313.959v31.745c0,2.685,2.346,3.768,5.24,3.768s5.243-1.083,5.243-3.768c0,0,.667-9.071,1.243-14.589,1.289-20.046,25.686,3.3,43.421,2.207,16.116-.991,28.808-6.508,28.808-19.621s-8.317-23.746-26.117-23.746Z" transform="translate(-2.874 337.965)"/>
    </clipPath>
    <linearGradient id="linear-gradient-6" x1="-0.01" y1="1.597" x2="-0.009" y2="1.597" xlink:href="#linear-gradient"/>
    <clipPath id="clip-path-7">
      <path id="path162" d="M5.306-250.72c.028,2.981-.4,29.021,1.263,30.585-.521-1.153.619-26.38.6-27.966l-.015-.928v-1.311a13.494,13.494,0,0,1-1.858-.851Z" transform="translate(-5.277 251.191)"/>
    </clipPath>
    <linearGradient id="linear-gradient-7" x1="-0.783" y1="2.275" x2="-0.763" y2="2.275" gradientUnits="objectBoundingBox">
      <stop offset="0" stop-color="#fafafd"/>
      <stop offset="1" stop-color="#8892d2"/>
    </linearGradient>
    <clipPath id="clip-path-8">
      <path id="path178" d="M62.576-334.857s-6.919-.081-32.2.75S5.48-324.037,5.48-311.616l.005.459A13.2,13.2,0,0,0,7.3-310.3c.006-11.756.51-20.381,24.895-21.182,25.282-.831,32.2-.75,32.2-.75,9.669,0,16.325,3.238,20.469,8.289-3.816-6.537-11.04-10.91-22.291-10.91Z" transform="translate(-5.48 334.86)"/>
    </clipPath>
    <linearGradient id="linear-gradient-8" x1="-0.019" y1="3.835" x2="-0.019" y2="3.835" xlink:href="#linear-gradient-7"/>
    <clipPath id="clip-path-9">
      <path id="path194" d="M121.273-210.712v14.139c0,4.9-4.9,6.654-10.939,6.654h0c-6.04,0-10.936-1.758-10.936-6.654v-21.52" transform="translate(-99.398 218.093)"/>
    </clipPath>
    <linearGradient id="linear-gradient-9" x1="-1.278" y1="2.177" x2="-1.276" y2="2.177" xlink:href="#linear-gradient"/>
    <clipPath id="clip-path-10">
      <path id="path230" d="M240.282-226.394v23.3c0,4.9-4.9,6.652-10.938,6.652h0c-6.041,0-10.936-1.757-10.936-6.652V-216.48" transform="translate(-218.407 226.394)"/>
    </clipPath>
    <linearGradient id="linear-gradient-10" x1="-2.808" y1="2.126" x2="-2.806" y2="2.126" xlink:href="#linear-gradient"/>
    <clipPath id="clip-path-11">
      <path id="path296" d="M75.958-345.481s6.408-4.37,10.455-5.867c1.29-.478,10.6-2.916,12.106,13.024.825,8.728-.66,14.756-7.876,15.848-4.318.654-3.649,3.846-3.649,3.846" transform="translate(-75.958 351.765)"/>
    </clipPath>
    <linearGradient id="linear-gradient-11" x1="-0.938" y1="2.986" x2="-0.937" y2="2.986" xlink:href="#linear-gradient"/>
    <clipPath id="clip-path-12">
      <path id="path314" d="M78.073-344.283c7.255-4.5,11.283-2.2,11.283-2.2a7.5,7.5,0,0,0-7.488-1.621c-4.033,1.5-11.823,7.033-11.823,7.033s-1.053,1.853,1.046,1.451C71.09-339.619,75.656-342.783,78.073-344.283Z" transform="translate(-69.78 348.489)"/>
    </clipPath>
    <linearGradient id="linear-gradient-12" x1="-1.003" y1="10.98" x2="-1.001" y2="10.98" xlink:href="#linear-gradient-7"/>
  </defs>
  <g id="php" transform="translate(0 -101.855)">
    <g id="g14" transform="translate(13.698 102.632)">
      <g id="g16" clip-path="url(#clip-path)">
        <path id="path28" d="M48.7-343.926s4.771-5.238,8.076-7.409c1.053-.691,8.883-4.778,13.912,9.288,2.751,7.7,2.8,13.438-3.456,15.885-3.744,1.465-2.406,4.209-2.406,4.209" transform="translate(-48.702 352.415)" fill="url(#linear-gradient)"/>
      </g>
    </g>
    <path id="path30" d="M54.254,103.072c-3.352,2.2-8.032,7.323-8.229,7.539A.751.751,0,0,0,46.1,111.7a.834.834,0,0,0,1.14-.075c.048-.052,4.744-5.191,7.926-7.28a6.544,6.544,0,0,1,5.243-.657c2.973.943,5.548,4.249,7.446,9.558,3.021,8.454,2.125,12.917-3,14.919a4.769,4.769,0,0,0-2.89,2.494,3.609,3.609,0,0,0,.057,2.759.817.817,0,0,0,1.064.372.761.761,0,0,0,.4-1.019,2.114,2.114,0,0,1-.012-1.566,3.3,3.3,0,0,1,1.988-1.607c7.725-3.024,6.149-10.594,3.913-16.853-2.1-5.867-4.945-9.407-8.465-10.524a8.189,8.189,0,0,0-6.668.849" transform="translate(-32.937 0)" fill="#363254"/>
    <g id="g32" transform="translate(77.858 114.154)">
      <g id="g34" transform="translate(0 0)" clip-path="url(#clip-path-2)">
        <path id="path46" d="M276.825-311.447h10.021a1.4,1.4,0,0,1,1.522,1.233h0a1.4,1.4,0,0,1-1.522,1.233H278.98l-2.155-2.466" transform="translate(-276.825 311.447)" fill="url(#linear-gradient-2)"/>
      </g>
    </g>
    <path id="path48" d="M282.435,144.376c.421,0,.713.243.713.461s-.292.46-.713.46h-7.488c-.161-.183-.4-.461-.8-.921Zm-11.749-1.546,3.506,4.013h8.243a2.029,2.029,0,1,0,0-4.013H270.686" transform="translate(-194.554 -29.451)" fill="#363254"/>
    <path id="path50" d="M314.613,134.36c1.378-.651,2.988-.492,3.6.355s-.013,2.062-1.39,2.716-4.98,1.437-5.591.587,2.006-3.007,3.381-3.658" transform="translate(-223.631 -23.075)" fill="#8b9dd7"/>
    <path id="path52" d="M313.051,133.082h0c1.069-.5,2.242-.362,2.577.1a.512.512,0,0,1,.066.458,2.01,2.01,0,0,1-1.15,1.126,9.831,9.831,0,0,1-4.416.818A7.915,7.915,0,0,1,313.051,133.082Zm-.715-1.385h0c-1.152.544-3.5,2.277-3.866,3.646l.178,1.142c1.107,1.542,5.573.16,6.614-.333a3.521,3.521,0,0,0,2-2.123,2,2,0,0,0-.3-1.723c-.844-1.169-2.873-1.437-4.623-.61" transform="translate(-221.711 -21.104)" fill="#363254"/>
    <path id="path54" d="M317.656,151.885c1.477.489,2.3,1.622,1.844,2.531s-2.027,1.248-3.5.758-4.438-2.328-3.98-3.236,4.166-.542,5.64-.053" transform="translate(-224.226 -35.595)" fill="#8b9dd7"/>
    <path id="path56" d="M316.184,149.172h0Zm-.53,1.46h0a2.21,2.21,0,0,1,1.369,1.027.477.477,0,0,1,.01.44c-.243.482-1.369.74-2.509.361a8.48,8.48,0,0,1-3.384-2.2,11.16,11.16,0,0,1,4.513.375Zm-6.1-1.013v1.122c.569,1.311,3.194,2.768,4.443,3.181,1.878.624,3.854.118,4.495-1.151a1.933,1.933,0,0,0,.2-.866,2.114,2.114,0,0,0-.18-.843,3.732,3.732,0,0,0-2.331-1.891c-1.117-.372-5.787-1.231-6.631.447" transform="translate(-222.488 -33.612)" fill="#363254"/>
    <path id="path58" d="M314.759,143.213c2.192-.014,3.977.769,3.985,1.752s-1.756,1.789-3.949,1.8-7.148-.746-7.158-1.727,4.933-1.811,7.122-1.827" transform="translate(-221.113 -29.726)" fill="#8b9dd7"/>
    <path id="path60" d="M315.872,143a.368.368,0,0,1-.133.206,4.836,4.836,0,0,1-3.012.816,20.726,20.726,0,0,1-6-.963,20.565,20.565,0,0,1,5.971-1.045h0c2.076-.014,3.17.726,3.172.986Zm-3.182-2.533h0c-1.592.011-6.321.568-7.534,1.747l-.39.862c.022,2.273,7.892,2.493,7.972,2.493a6.313,6.313,0,0,0,4.155-1.279,1.788,1.788,0,0,0,.6-1.306c-.012-1.475-2.031-2.534-4.8-2.517" transform="translate(-219.049 -27.749)" fill="#363254"/>
    <g id="g62" transform="translate(21.091 138.45)">
      <g id="g64" clip-path="url(#clip-path-3)">
        <path id="path76" d="M96.864-224.832v19.854c0,4.9-4.9,6.65-10.937,6.65h0c-6.041,0-10.936-1.755-10.936-6.65v-20.088" transform="translate(-74.99 225.066)" fill="url(#linear-gradient-3)"/>
      </g>
    </g>
    <path id="path78" d="M72.119,229.986v20.088c0,4.788,4.17,7.423,11.744,7.423s11.746-2.636,11.746-7.423V230.221a.809.809,0,0,0-1.616,0v19.854c0,4.858-5.508,5.877-10.13,5.877s-10.128-1.019-10.128-5.877V229.986a.809.809,0,0,0-1.616,0" transform="translate(-51.835 -91.538)" fill="#363254"/>
    <path id="path80" d="M78.816,286.782c0,1.981-1.157,3.591-2.586,3.591s-2.586-1.61-2.586-3.591,1.158-6.464,2.586-6.464,2.586,4.48,2.586,6.464" transform="translate(-52.931 -128.27)" fill="#8b9dd7"/>
    <path id="path82" d="M73.224,286.121c0-2.158,1.227-6.206,2.317-6.206s2.317,4.049,2.317,6.206c0,1.839-1.039,3.333-2.317,3.333S73.224,287.96,73.224,286.121Zm-.539,0c0,2.122,1.281,3.849,2.856,3.849s2.855-1.727,2.855-3.849c0-1.938-1.137-6.723-2.855-6.723s-2.856,4.784-2.856,6.723" transform="translate(-52.242 -127.609)" fill="#363254"/>
    <path id="path84" d="M76.121,288.665c0-1.908,1.4-5.343,2.422-5.343a.473.473,0,0,1,.286.122c-.255-.6-.548-1-.858-1-1.023,0-1.85,4.318-1.85,6.225" transform="translate(-54.712 -129.794)" fill="#a6bde6"/>
    <path id="path86" d="M85.855,297.328c0,1.53-.92,2.771-2.056,2.771s-2.059-1.241-2.059-2.771.922-4.991,2.059-4.991,2.056,3.456,2.056,4.991" transform="translate(-58.751 -136.908)" fill="#8b9dd7"/>
    <path id="path88" d="M81.321,296.669c0-1.6.967-4.733,1.789-4.733s1.787,3.129,1.787,4.733c0,1.385-.8,2.513-1.787,2.513S81.321,298.055,81.321,296.669Zm-.539,0c0,1.67,1.044,3.029,2.328,3.029s2.326-1.359,2.326-3.029c0-1.307-.825-5.249-2.326-5.249s-2.328,3.943-2.328,5.249" transform="translate(-58.062 -136.249)" fill="#363254"/>
    <path id="path90" d="M84.782,297.943c-.1-1.091.861-2.9,1.612-3.033a.419.419,0,0,1,.215.037c-.22-.313-.469-.563-.683-.465-.744.352-1.248,2.374-1.144,3.461" transform="translate(-60.927 -138.435)" fill="#a6bde6"/>
    <g id="g92" transform="translate(54.55 138.692)">
      <g id="g94" transform="translate(0 0)" clip-path="url(#clip-path-4)">
        <path id="path106" d="M215.827-223.97v19.853c0,4.9-4.9,6.65-10.937,6.65h0c-6.041,0-10.938-1.754-10.938-6.65V-224.2" transform="translate(-193.952 224.204)" fill="url(#linear-gradient-4)"/>
      </g>
    </g>
    <path id="path108" d="M191.082,230.846v20.088c0,4.787,4.172,7.423,11.746,7.423a17.542,17.542,0,0,0,8.126-1.586,6.329,6.329,0,0,0,3.619-5.837V231.08a.808.808,0,0,0-1.615,0v19.854a4.755,4.755,0,0,1-2.789,4.486,16.193,16.193,0,0,1-7.342,1.391c-4.621,0-10.129-1.02-10.129-5.877V230.846a.809.809,0,0,0-1.617,0" transform="translate(-137.339 -92.156)" fill="#363254"/>
    <path id="path110" d="M197.786,287.643c0,1.981-1.157,3.593-2.585,3.593s-2.587-1.613-2.587-3.593,1.157-6.463,2.587-6.463,2.585,4.48,2.585,6.463" transform="translate(-138.44 -128.889)" fill="#7483ca"/>
    <path id="path112" d="M192.191,286.985a13.8,13.8,0,0,1,.745-3.894c.488-1.425,1.091-2.311,1.574-2.311,1.089,0,2.316,4.048,2.316,6.206,0,1.839-1.039,3.335-2.316,3.335S192.191,288.824,192.191,286.985Zm.233-4.055a14.327,14.327,0,0,0-.771,4.055c0,2.123,1.282,3.851,2.857,3.851s2.855-1.728,2.855-3.851c0-1.938-1.138-6.721-2.855-6.721-.971,0-1.67,1.449-2.086,2.666" transform="translate(-137.749 -128.231)" fill="#363254"/>
    <path id="path114" d="M195.095,289.528c0-1.909,1.4-5.346,2.42-5.346a.481.481,0,0,1,.287.123c-.256-.6-.548-1-.858-1-1.023,0-1.849,4.319-1.849,6.228" transform="translate(-140.223 -130.413)" fill="#839ad6"/>
    <path id="path116" d="M204.83,298.188c0,1.533-.92,2.771-2.057,2.771s-2.057-1.238-2.057-2.771.921-4.99,2.057-4.99,2.057,3.456,2.057,4.99" transform="translate(-144.263 -137.527)" fill="#7483ca"/>
    <path id="path118" d="M200.3,297.53c0-1.6.965-4.732,1.788-4.732s1.787,3.128,1.787,4.732c0,1.386-.8,2.514-1.787,2.514S200.3,298.916,200.3,297.53Zm-.539,0c0,1.671,1.043,3.029,2.326,3.029s2.326-1.358,2.326-3.029c0-1.306-.826-5.248-2.326-5.248s-2.326,3.942-2.326,5.248" transform="translate(-143.575 -136.869)" fill="#363254"/>
    <path id="path120" d="M203.754,298.8c-.1-1.089.86-2.9,1.612-3.032a.407.407,0,0,1,.214.037c-.22-.313-.469-.564-.683-.465-.744.352-1.248,2.374-1.143,3.461" transform="translate(-146.437 -139.053)" fill="#839ad6"/>
    <g id="g122" transform="translate(29.852 111.569)">
      <g id="g124" clip-path="url(#clip-path-5)">
        <path id="path136" d="M110.05-320.641c4.26,6.87,3.806,12.673-1.87,15.715-3.4,1.822-1.527,4.225-1.527,4.225" transform="translate(-106.139 320.641)" fill="url(#linear-gradient-5)"/>
      </g>
    </g>
    <path id="path138" d="M107.578,133.742a.754.754,0,0,0-.283,1.06c2.371,3.822,3.22,7.284,2.455,10.008a7.627,7.627,0,0,1-4.024,4.638,4.237,4.237,0,0,0-2.383,2.7,3.44,3.44,0,0,0,.6,2.665.83.83,0,0,0,1.124.159.754.754,0,0,0,.177-1.078,1.935,1.935,0,0,1-.319-1.438,2.814,2.814,0,0,1,1.588-1.656,9.122,9.122,0,0,0,4.8-5.587c.88-3.137-.027-7.009-2.627-11.2a.828.828,0,0,0-1.107-.27" transform="translate(-74.226 -22.841)" fill="#080604"/>
    <g id="g140" transform="translate(0.808 106.696)">
      <g id="g142" transform="translate(0 0)" clip-path="url(#clip-path-6)">
        <path id="path154" d="M60.712-337.963s-7.072-.083-32.913.767S2.914-327.157,2.874-313.959v31.745c0,2.685,2.346,3.768,5.24,3.768s5.243-1.083,5.243-3.768c0,0,.667-9.071,1.243-14.589,1.289-20.046,25.686,3.3,43.421,2.207,16.116-.991,28.808-6.508,28.808-19.621s-8.317-23.746-26.117-23.746" transform="translate(-2.874 337.965)" fill="url(#linear-gradient-6)"/>
      </g>
    </g>
    <path id="path156" d="M1.616,172.836V141.09s0-1.4,0-1.4c0-12.208.008-20.274,24.143-21.067,25.506-.837,32.806-.767,32.877-.767h.01c8.126,0,14.748,2.323,19.15,6.718,4.03,4.022,6.16,9.643,6.16,16.257,0,14.154-15.255,18.063-28.052,18.85-6.735.413-14.68-2.89-21.689-5.805-7.857-3.267-14.642-6.088-18.82-3.639-2.207,1.293-3.406,3.9-3.667,7.961-.568,5.436-1.237,14.49-1.244,14.582,0,2.66-2.781,3.049-4.437,3.049s-4.432-.39-4.432-3ZM25.707,117.08C.01,117.924.006,127.054,0,139.69l0,1.4v31.748c0,2.844,2.261,4.543,6.049,4.543s6.052-1.7,6.052-4.543c0-.037.671-9.07,1.24-14.513.229-3.552,1.177-5.755,2.9-6.766,3.462-2.028,10.2.773,17.332,3.739,7.177,2.984,15.312,6.367,22.437,5.929,19.065-1.173,29.565-8.415,29.565-20.393,0-7.019-2.286-13.011-6.609-17.327-4.713-4.705-11.739-7.193-20.317-7.193h.01c-.071,0-7.388-.074-32.951.768" transform="translate(0 -10.39)" fill="#363254"/>
    <g id="g158" transform="translate(1.484 131.102)">
      <g id="g160" transform="translate(0 0)" clip-path="url(#clip-path-7)">
        <path id="path172" d="M5.306-250.72c.028,2.981-.4,29.021,1.263,30.585-.521-1.153.619-26.38.6-27.966l-.015-.928v-1.311a13.494,13.494,0,0,1-1.858-.851l.007.471" transform="translate(-5.277 251.191)" fill="url(#linear-gradient-7)"/>
      </g>
    </g>
    <g id="g174" transform="translate(1.541 107.57)">
      <g id="g176" transform="translate(0 0)" clip-path="url(#clip-path-8)">
        <path id="path188" d="M62.576-334.857s-6.919-.081-32.2.75S5.48-324.037,5.48-311.616l.005.459A13.2,13.2,0,0,0,7.3-310.3c.006-11.756.51-20.381,24.895-21.182,25.282-.831,32.2-.75,32.2-.75,9.669,0,16.325,3.238,20.469,8.289-3.816-6.537-11.04-10.91-22.291-10.91" transform="translate(-5.48 334.86)" fill="url(#linear-gradient-8)"/>
      </g>
    </g>
    <g id="g190" transform="translate(27.956 140.411)">
      <g id="g192" transform="translate(0 0)" clip-path="url(#clip-path-9)">
        <path id="path204" d="M121.273-210.712v14.139c0,4.9-4.9,6.654-10.939,6.654h0c-6.04,0-10.936-1.758-10.936-6.654v-21.52" transform="translate(-99.398 218.093)" fill="url(#linear-gradient-9)"/>
      </g>
    </g>
    <path id="path206" d="M96.527,236.959v21.52c0,4.789,4.172,7.426,11.745,7.426s11.748-2.637,11.748-7.426V244.341a.809.809,0,0,0-1.616,0V258.48c0,4.86-5.509,5.88-10.131,5.88s-10.129-1.02-10.129-5.88v-21.52a.809.809,0,0,0-1.616,0" transform="translate(-69.378 -96.55)" fill="#363254"/>
    <path id="path208" d="M106.222,304.979a3.454,3.454,0,0,1-6.9,0c0-1.844,1.545-6.006,3.452-6.006s3.451,4.162,3.451,6.006" transform="translate(-71.385 -141.678)" fill="#8b9dd7"/>
    <path id="path210" d="M98.9,304.316c0-1.8,1.539-5.749,3.182-5.749s3.182,3.954,3.182,5.749a3.184,3.184,0,0,1-6.365,0Zm-.539,0a3.724,3.724,0,0,0,7.443,0c0-1.868-1.57-6.265-3.721-6.265s-3.722,4.4-3.722,6.265" transform="translate(-70.696 -141.015)" fill="#363254"/>
    <path id="path212" d="M101.415,307.379c0-1.649,1.933-4.612,3.346-4.612a.9.9,0,0,1,.4.107c-.356-.521-.758-.868-1.185-.868-1.415,0-2.557,3.726-2.557,5.373" transform="translate(-72.892 -143.858)" fill="#a6bde6"/>
    <path id="path214" d="M115.591,301c0,2.429-1.6,4.405-3.573,4.405s-3.576-1.976-3.576-4.405,1.6-7.925,3.576-7.925,3.573,5.492,3.573,7.925" transform="translate(-77.942 -137.44)" fill="#8b9dd7"/>
    <path id="path216" d="M108.022,300.345c0-2.4,1.6-7.668,3.307-7.668s3.3,5.272,3.3,7.668c0,2.286-1.482,4.147-3.3,4.147S108.022,302.631,108.022,300.345Zm-.539,0c0,2.571,1.725,4.663,3.846,4.663s3.843-2.092,3.843-4.663c0-2.441-1.623-8.182-3.843-8.182s-3.846,5.74-3.846,8.182" transform="translate(-77.253 -136.783)" fill="#363254"/>
    <path id="path218" d="M111.868,303.311c0-2.342,1.934-6.551,3.347-6.551a.71.71,0,0,1,.4.15c-.354-.743-.758-1.233-1.185-1.233-1.415,0-2.558,5.3-2.558,7.634" transform="translate(-80.405 -139.309)" fill="#a6bde6"/>
    <path id="path220" d="M127.385,311.558a2.619,2.619,0,1,1-5.144,0c0-1.728,1.152-5.614,2.572-5.614s2.572,3.886,2.572,5.614" transform="translate(-87.86 -146.688)" fill="#8b9dd7"/>
    <path id="path222" d="M121.822,310.9c0-1.862,1.221-5.357,2.3-5.357s2.3,3.494,2.3,5.357a2.356,2.356,0,1,1-4.605,0Zm-.539,0a2.883,2.883,0,1,0,5.683,0c0-1.693-1.132-5.872-2.841-5.872s-2.841,4.179-2.841,5.872" transform="translate(-87.171 -146.03)" fill="#363254"/>
    <path id="path224" d="M126.043,312.241c-.13-1.228,1.075-3.264,2.014-3.411a.535.535,0,0,1,.269.04c-.276-.354-.587-.634-.854-.523-.931.4-1.56,2.669-1.43,3.893" transform="translate(-90.581 -148.398)" fill="#a6bde6"/>
    <g id="g226" transform="translate(61.428 138.076)">
      <g id="g228" transform="translate(0 0)" clip-path="url(#clip-path-10)">
        <path id="path240" d="M240.282-226.394v23.3c0,4.9-4.9,6.652-10.938,6.652h0c-6.041,0-10.936-1.757-10.936-6.652V-216.48" transform="translate(-218.407 226.394)" fill="url(#linear-gradient-10)"/>
      </g>
    </g>
    <path id="path242" d="M237.414,228.659v23.3c0,4.86-5.509,5.879-10.13,5.879s-10.128-1.019-10.128-5.879V238.573a.809.809,0,0,0-1.616,0v13.389c0,4.788,4.171,7.426,11.745,7.426s11.746-2.638,11.746-7.426v-23.3a.809.809,0,0,0-1.616,0" transform="translate(-154.918 -90.585)" fill="#363254"/>
    <path id="path244" d="M225.235,303.01a3.454,3.454,0,0,1-6.9,0c0-1.844,1.545-6.006,3.451-6.006s3.452,4.163,3.452,6.006" transform="translate(-156.925 -140.262)" fill="#8b9dd7"/>
    <path id="path246" d="M217.913,302.352c0-1.8,1.538-5.748,3.182-5.748s3.183,3.952,3.183,5.748a3.184,3.184,0,0,1-6.365,0Zm-.539,0a3.723,3.723,0,0,0,7.442,0c0-1.868-1.571-6.264-3.721-6.264s-3.721,4.4-3.721,6.264" transform="translate(-156.236 -139.604)" fill="#363254"/>
    <path id="path248" d="M220.426,305.409c0-1.649,1.932-4.611,3.346-4.611a.905.905,0,0,1,.4.106c-.356-.521-.758-.867-1.185-.867-1.414,0-2.557,3.726-2.557,5.373" transform="translate(-158.43 -142.442)" fill="#a6bde6"/>
    <path id="path250" d="M234.6,299.036c0,2.43-1.6,4.406-3.574,4.406s-3.576-1.976-3.576-4.406,1.6-7.923,3.576-7.923,3.574,5.491,3.574,7.923" transform="translate(-163.481 -136.028)" fill="#8b9dd7"/>
    <path id="path252" d="M227.034,298.374c0-2.4,1.6-7.666,3.307-7.666s3.3,5.27,3.3,7.666c0,2.287-1.483,4.149-3.3,4.149S227.034,300.661,227.034,298.374Zm-.539,0c0,2.572,1.725,4.663,3.845,4.663s3.843-2.092,3.843-4.663c0-2.44-1.622-8.182-3.843-8.182s-3.845,5.742-3.845,8.182" transform="translate(-162.792 -135.366)" fill="#363254"/>
    <path id="path254" d="M230.881,301.346c0-2.342,1.934-6.551,3.346-6.551a.712.712,0,0,1,.4.15c-.353-.743-.758-1.232-1.185-1.232-1.414,0-2.557,5.294-2.557,7.633" transform="translate(-165.945 -137.897)" fill="#a6bde6"/>
    <path id="path256" d="M246.4,309.588a2.619,2.619,0,1,1-5.143,0c0-1.727,1.152-5.614,2.572-5.614s2.571,3.887,2.571,5.614" transform="translate(-173.399 -145.272)" fill="#8b9dd7"/>
    <path id="path258" d="M240.833,308.93c0-1.862,1.22-5.355,2.3-5.355s2.3,3.493,2.3,5.355a2.356,2.356,0,1,1-4.606,0Zm-.539,0a2.883,2.883,0,1,0,5.683,0c0-1.692-1.132-5.872-2.841-5.872s-2.842,4.179-2.842,5.872" transform="translate(-172.71 -144.615)" fill="#363254"/>
    <path id="path260" d="M245.056,310.274c-.13-1.228,1.075-3.263,2.014-3.411a.528.528,0,0,1,.269.04c-.276-.355-.587-.633-.854-.524-.931.4-1.559,2.67-1.429,3.894" transform="translate(-176.121 -146.984)" fill="#a6bde6"/>
    <path id="path262" d="M26.823,152.158a.817.817,0,0,0,.227,1.182.944.944,0,0,0,1.26-.211,7.094,7.094,0,0,1,7.018-2.172,1.017,1.017,0,0,0,.975-.123c.191-.191.066-.448-.281-.572-2.38-.853-7.047-1.007-9.2,1.9" transform="translate(-19.162 -34.404)" fill="#363254"/>
    <path id="path264" d="M43.715,178.775a2.3,2.3,0,0,1-2.954-1.86,3,3,0,0,1,2.484-3,2.3,2.3,0,0,1,2.957,1.859,3,3,0,0,1-2.486,3Zm3.1-3.181c-.15-1.564-1.713-2.527-3.494-2.155a3.533,3.533,0,0,0-2.951,3.5,2.708,2.708,0,0,0,3.492,2.157,3.535,3.535,0,0,0,2.953-3.5" transform="translate(-29.01 -51.394)" fill="#363254"/>
    <path id="path266" d="M48.578,178a2.632,2.632,0,0,1-2.173,2.638A2.02,2.02,0,0,1,43.81,179a2.633,2.633,0,0,1,2.175-2.637A2.017,2.017,0,0,1,48.578,178" transform="translate(-31.482 -53.51)" fill="#fcfcfc"/>
    <path id="path268" d="M52.526,179.218a1.806,1.806,0,0,0-2.1-1.17,1.315,1.315,0,0,0-.861.873l1.12.55-1.029.737a1.793,1.793,0,0,0,2.062,1.093,1.509,1.509,0,0,0,.81-2.083" transform="translate(-35.622 -54.718)" fill="#363254"/>
    <path id="path270" d="M56.544,180.994c.2-.029.434.211.52.543s-.007.62-.21.651-.436-.211-.522-.542.011-.619.213-.652" transform="translate(-40.466 -56.879)" fill="#fff"/>
    <path id="path272" d="M40.079,168.957c-1.4,1.075-1.849,2.637-.9,3.522-.082-.035.1.193.021.15-1.494-.822-1.744-3.262-.368-4.7,1.181-1.234,4.725-2.149,4.7-1.673-.146.546-1.184,1.239-2.472,1.992a7.782,7.782,0,0,0-.98.707" transform="translate(-27.26 -46.198)" fill="#363254"/>
    <path id="path274" d="M127.618,190.631a.541.541,0,0,0,.554.667h2.164a.867.867,0,0,0,.817-.667l.576-2.947a.865.865,0,0,1,.816-.667h2.342a10.9,10.9,0,0,0,3.3-.418,6.252,6.252,0,0,0,2.354-1.4,6.985,6.985,0,0,0,2.218-3.943,5.313,5.313,0,0,0-.845-4.46c-1.069-1.419-3.8-1.494-3.8-1.494a11.178,11.178,0,0,0-1.362-.1h-5.427a.867.867,0,0,0-.816.668Zm8.48-12.892a3.636,3.636,0,0,1,2.686.738,2.9,2.9,0,0,1,.321,2.532,4.242,4.242,0,0,1-1.413,2.669,6.8,6.8,0,0,1-2.5.725c-.375.041-.99.074-1.367.074h-.779a.542.542,0,0,1-.555-.667l1.059-5.4a.866.866,0,0,1,.815-.668H136.1" transform="translate(-91.716 -52.715)" fill="#363254"/>
    <path id="path276" d="M127.618,190.631a.541.541,0,0,0,.554.667h2.164a.867.867,0,0,0,.817-.667l.576-2.947a.865.865,0,0,1,.816-.667h2.342a10.9,10.9,0,0,0,3.3-.418,6.252,6.252,0,0,0,2.354-1.4,6.985,6.985,0,0,0,2.218-3.943,5.313,5.313,0,0,0-.845-4.46c-1.069-1.419-3.8-1.494-3.8-1.494a11.178,11.178,0,0,0-1.362-.1h-5.427a.867.867,0,0,0-.816.668Zm8.48-12.892a3.636,3.636,0,0,1,2.686.738,2.9,2.9,0,0,1,.321,2.532,4.242,4.242,0,0,1-1.413,2.669,6.8,6.8,0,0,1-2.5.725c-.375.041-.99.074-1.367.074h-.779a.542.542,0,0,1-.555-.667l1.059-5.4a.866.866,0,0,1,.815-.668Z" transform="translate(-91.716 -52.715)" fill="none" stroke="#fff" stroke-width="5.291"/>
    <path id="path278" d="M186.174,160.652a.864.864,0,0,1,.815-.666h2.137a.54.54,0,0,1,.554.666L189.1,163.6a.541.541,0,0,0,.555.666h1.753c.377,0,.992.032,1.366.07,0,0,2.557.03,3.386.951a3.582,3.582,0,0,1,.671,3.306l-1.336,6.825a.865.865,0,0,1-.816.667h-2.192a.541.541,0,0,1-.555-.667l1.135-5.79c.072-.366.152-.972.18-1.345a1.589,1.589,0,0,0-.226-.979,2.476,2.476,0,0,0-1.76-.442h-2.117a.866.866,0,0,0-.816.666l-1.544,7.889a.865.865,0,0,1-.816.667h-2.138a.541.541,0,0,1-.554-.667l2.893-14.765" transform="translate(-131.724 -41.781)" fill="#363254"/>
    <path id="path280" d="M186.174,160.652a.864.864,0,0,1,.815-.666h2.137a.54.54,0,0,1,.554.666L189.1,163.6a.541.541,0,0,0,.555.666h1.753c.377,0,.992.032,1.366.07,0,0,2.557.03,3.386.951a3.582,3.582,0,0,1,.671,3.306l-1.336,6.825a.865.865,0,0,1-.816.667h-2.192a.541.541,0,0,1-.555-.667l1.135-5.79c.072-.366.152-.972.18-1.345a1.589,1.589,0,0,0-.226-.979,2.476,2.476,0,0,0-1.76-.442h-2.117a.866.866,0,0,0-.816.666l-1.544,7.889a.865.865,0,0,1-.816.667h-2.138a.541.541,0,0,1-.554-.667Z" transform="translate(-131.724 -41.781)" fill="none" stroke="#fff" stroke-width="5.291"/>
    <path id="path282" d="M232.111,190.631a.541.541,0,0,0,.555.667h2.164a.866.866,0,0,0,.816-.667l.577-2.947a.865.865,0,0,1,.815-.667h2.343a10.92,10.92,0,0,0,3.3-.418,6.255,6.255,0,0,0,2.352-1.4,6.984,6.984,0,0,0,2.219-3.943,5.2,5.2,0,0,0-.846-4.46c-1.093-1.38-3.8-1.494-3.8-1.494a11.184,11.184,0,0,0-1.362-.1h-5.427a.865.865,0,0,0-.815.668Zm8.481-12.892a3.64,3.64,0,0,1,2.686.738,2.908,2.908,0,0,1,.319,2.532,4.235,4.235,0,0,1-1.412,2.669,6.813,6.813,0,0,1-2.5.725c-.374.041-.988.074-1.366.074h-.78a.541.541,0,0,1-.554-.667l1.058-5.4a.867.867,0,0,1,.816-.668h1.738" transform="translate(-166.82 -52.715)" fill="#363254"/>
    <path id="path284" d="M232.111,190.631a.541.541,0,0,0,.555.667h2.164a.866.866,0,0,0,.816-.667l.577-2.947a.865.865,0,0,1,.815-.667h2.343a10.92,10.92,0,0,0,3.3-.418,6.255,6.255,0,0,0,2.352-1.4,6.984,6.984,0,0,0,2.219-3.943,5.2,5.2,0,0,0-.846-4.46c-1.093-1.38-3.8-1.494-3.8-1.494a11.184,11.184,0,0,0-1.362-.1h-5.427a.865.865,0,0,0-.815.668Zm8.481-12.892a3.64,3.64,0,0,1,2.686.738,2.908,2.908,0,0,1,.319,2.532,4.235,4.235,0,0,1-1.412,2.669,6.813,6.813,0,0,1-2.5.725c-.374.041-.988.074-1.366.074h-.78a.541.541,0,0,1-.554-.667l1.058-5.4a.867.867,0,0,1,.816-.668Z" transform="translate(-166.82 -52.715)" fill="none" stroke="#fff" stroke-width="5.291"/>
    <path id="path286" d="M127.618,190.631a.541.541,0,0,0,.554.667h2.164a.867.867,0,0,0,.817-.667l.576-2.947a.865.865,0,0,1,.816-.667h2.342a10.9,10.9,0,0,0,3.3-.418,6.252,6.252,0,0,0,2.354-1.4,6.985,6.985,0,0,0,2.218-3.943,5.313,5.313,0,0,0-.845-4.46c-1.069-1.419-3.8-1.494-3.8-1.494a11.178,11.178,0,0,0-1.362-.1h-5.427a.867.867,0,0,0-.816.668Zm8.48-12.892a3.636,3.636,0,0,1,2.686.738,2.9,2.9,0,0,1,.321,2.532,4.242,4.242,0,0,1-1.413,2.669,6.8,6.8,0,0,1-2.5.725c-.375.041-.99.074-1.367.074h-.779a.542.542,0,0,1-.555-.667l1.059-5.4a.866.866,0,0,1,.815-.668H136.1" transform="translate(-91.716 -52.715)" fill="#363254"/>
    <path id="path288" d="M186.174,160.652a.864.864,0,0,1,.815-.666h2.137a.54.54,0,0,1,.554.666L189.1,163.6a.541.541,0,0,0,.555.666h1.753c.377,0,.992.032,1.366.07,0,0,2.557.03,3.386.951a3.582,3.582,0,0,1,.671,3.306l-1.336,6.825a.865.865,0,0,1-.816.667h-2.192a.541.541,0,0,1-.555-.667l1.135-5.79c.072-.366.152-.972.18-1.345a1.589,1.589,0,0,0-.226-.979,2.476,2.476,0,0,0-1.76-.442h-2.117a.866.866,0,0,0-.816.666l-1.544,7.889a.865.865,0,0,1-.816.667h-2.138a.541.541,0,0,1-.554-.667l2.893-14.765" transform="translate(-131.724 -41.781)" fill="#363254"/>
    <path id="path290" d="M232.111,190.631a.541.541,0,0,0,.555.667h2.164a.866.866,0,0,0,.816-.667l.577-2.947a.865.865,0,0,1,.815-.667h2.343a10.92,10.92,0,0,0,3.3-.418,6.255,6.255,0,0,0,2.352-1.4,6.984,6.984,0,0,0,2.219-3.943,5.2,5.2,0,0,0-.846-4.46c-1.093-1.38-3.8-1.494-3.8-1.494a11.184,11.184,0,0,0-1.362-.1h-5.427a.865.865,0,0,0-.815.668Zm8.481-12.892a3.64,3.64,0,0,1,2.686.738,2.908,2.908,0,0,1,.319,2.532,4.235,4.235,0,0,1-1.412,2.669,6.813,6.813,0,0,1-2.5.725c-.374.041-.988.074-1.366.074h-.78a.541.541,0,0,1-.554-.667l1.058-5.4a.867.867,0,0,1,.816-.668h1.738" transform="translate(-166.82 -52.715)" fill="#363254"/>
    <g id="g292" transform="translate(21.364 102.815)">
      <g id="g294" clip-path="url(#clip-path-11)">
        <path id="path306" d="M75.958-345.481s6.408-4.37,10.455-5.867c1.29-.478,10.6-2.916,12.106,13.024.825,8.728-.66,14.756-7.876,15.848-4.318.654-3.649,3.846-3.649,3.846" transform="translate(-75.958 351.765)" fill="url(#linear-gradient-11)"/>
      </g>
    </g>
    <path id="path308" d="M84.057,102.976c-4.094,1.516-10.366,5.778-10.632,5.959a.752.752,0,0,0-.188,1.078.832.832,0,0,0,1.127.18c.063-.042,6.372-4.33,10.276-5.776a7.169,7.169,0,0,1,5.753.562c2.871,1.706,4.689,5.79,5.26,11.811.909,9.624-1.244,14.113-7.2,15.015a5.26,5.26,0,0,0-3.654,1.912,3.837,3.837,0,0,0-.662,2.851.805.805,0,0,0,.944.6.778.778,0,0,0,.642-.9,2.359,2.359,0,0,1,.414-1.685,3.766,3.766,0,0,1,2.568-1.252c8.853-1.34,9.223-9.619,8.556-16.681-.627-6.617-2.653-10.986-6.016-12.985a8.792,8.792,0,0,0-7.189-.691" transform="translate(-52.531 -0.468)" fill="#363254"/>
    <g id="g310" transform="translate(19.626 103.736)">
      <g id="g312" transform="translate(0 0)" clip-path="url(#clip-path-12)">
        <path id="path324" d="M78.073-344.283c7.255-4.5,11.283-2.2,11.283-2.2a7.5,7.5,0,0,0-7.488-1.621c-4.033,1.5-11.823,7.033-11.823,7.033s-1.053,1.853,1.046,1.451c0,0,4.565-3.164,6.983-4.664" transform="translate(-69.78 348.489)" fill="url(#linear-gradient-12)"/>
      </g>
    </g>
    <path id="path326" d="M73.25,197.7c-.063,3.654-1.283,6.981-3.185,8.678a3.9,3.9,0,0,1-2.787,1.106.515.515,0,1,0-.055,1.028,4.972,4.972,0,0,0,3.577-1.38c2.108-1.882,3.459-5.49,3.526-9.416a.525.525,0,0,0-.529-.523.53.53,0,0,0-.548.508" transform="translate(-47.949 -68.521)" fill="#363254"/>
    <path id="path328" d="M85.163,188.912a2.507,2.507,0,0,1-1.947,1.609,2.471,2.471,0,0,1-2.206-1.008.555.555,0,0,0-.754-.1.5.5,0,0,0-.107.721,3.424,3.424,0,0,0,6.009-.82.508.508,0,0,0-.288-.674.549.549,0,0,0-.706.275" transform="translate(-57.528 -62.345)" fill="#363254"/>
  </g>
</svg>
