<svg xmlns="http://www.w3.org/2000/svg" xmlns:xlink="http://www.w3.org/1999/xlink" width="209" height="121.184" viewBox="0 0 209 121.184">
  <defs>
    <linearGradient id="linear-gradient" y1="0.5" x2="1" y2="0.5" gradientUnits="objectBoundingBox">
      <stop offset="0" stop-color="#d212b8"/>
      <stop offset="1" stop-color="#6e28e4"/>
    </linearGradient>
  </defs>
  <g id="logo-2" transform="translate(-105 -46)">
    <circle id="Elipse_33" data-name="Elipse 33" cx="60.592" cy="60.592" r="60.592" transform="translate(150.806 46)" fill="#1c1f36"/>
    <circle id="Elipse_34" data-name="Elipse 34" cx="11.31" cy="11.31" r="11.31" transform="translate(165.348 133.252)" fill="#fff"/>
    <path id="Caminho_10" data-name="Caminho 10" d="M15.74-32.266H.084V-46.65H6.551v8.022H9.343V-67.536h6.4Zm18.13,0H27.3V-46.65H24.575v14.384H17.967v-35.27h15.9ZM27.332-53.4v-7.563H24.54V-53.4Zm24.7,21.134H36.026V-38.8h9.4v-7.81h-9.4V-67.536H52.035V-61H42.6v7.457h9.436Zm18.519,0H54.368v-35.27H70.554ZM63.945-38.7V-61.1H60.8V-38.7Zm28.237,6.432H85.856l-6.573-17v17h-6.4v-35.27h6.326L85.786-50.5V-67.536h6.4Z" transform="translate(164 163.798)" fill="url(#linear-gradient)"/>
    <path id="Subtração_14" data-name="Subtração 14" d="M22.033,99.08h-.005c-5.935,0-10.78-.631-14.4-1.876-3.7-1.272-6.083-3.177-7.088-5.662A9.005,9.005,0,0,1,.5,85.48a24.46,24.46,0,0,1,4.023-7.365,63.992,63.992,0,0,1,7.757-8.357A130.579,130.579,0,0,1,23.4,60.708c4.221-3.1,8.962-6.281,14.092-9.458,1.064-.659,2.166-1.33,3.274-1.995-.011.5-.017,1.008-.017,1.517,0,.33,0,.667.008,1-5.3,3.179-10.22,6.369-14.609,9.484C17.74,67.223,11.478,72.745,7.532,77.672a23.839,23.839,0,0,0-4.1,6.946,8.222,8.222,0,0,0-.1,5.811c.9,2.23,3.035,3.929,6.34,5.049A40.512,40.512,0,0,0,22.3,97.1H22.3c9.151,0,21.343-1.727,35.259-4.992a14.893,14.893,0,0,0,.652,2.062c-6.282,1.44-12.278,2.583-17.821,3.4A128.386,128.386,0,0,1,22.033,99.08ZM86.827,86.187h0a14.925,14.925,0,0,0-.544-2.215c9.27-3.031,18.707-6.481,28.051-10.256,27-10.909,51.38-23.664,68.645-35.914,8.406-5.965,14.668-11.487,18.613-16.414a23.834,23.834,0,0,0,4.1-6.945,8.223,8.223,0,0,0,.095-5.811c-.9-2.23-3.034-3.929-6.339-5.049a40.532,40.532,0,0,0-12.627-1.618c-8.737,0-20.3,1.582-33.447,4.574-.569-.613-1.159-1.223-1.752-1.814,5.978-1.35,11.692-2.429,16.985-3.207A128.349,128.349,0,0,1,186.966,0c5.939,0,10.786.631,14.4,1.876,3.7,1.273,6.084,3.178,7.088,5.662A9.008,9.008,0,0,1,208.5,13.6a24.468,24.468,0,0,1-4.024,7.365,64.005,64.005,0,0,1-7.757,8.358A130.522,130.522,0,0,1,185.6,38.371c-4.223,3.1-8.964,6.283-14.092,9.458-5.173,3.2-10.789,6.428-16.693,9.587a410.165,410.165,0,0,1-39.679,18.455c-9.1,3.678-18.255,7.027-27.2,9.953l-1.115.363Z" transform="translate(105 55.811)" fill="#fff"/>
    <text id="xatspace_designer" data-name="xatspace designer" transform="translate(210 91)" fill="#fff" font-size="14" font-family="FacetRegular, Facet"><tspan x="-48.293" y="0">XATSPACE DESIGNER</tspan></text>
  </g>
</svg>
