<svg xmlns="http://www.w3.org/2000/svg" width="322.196" height="264.381" viewBox="0 0 322.196 264.381">
  <g id="not-content" transform="translate(-484.722 -583)">
    <g id="Grupo_4" data-name="Grupo 4" transform="translate(14.946 189.538) rotate(-17)">
      <rect id="Retângulo_57" data-name="Retângulo 57" width="140" height="187" rx="10" transform="translate(313 583)" fill="#e1e5e6"/>
      <g id="Grupo_2" data-name="Grupo 2">
        <path id="Elipse_41" data-name="Elipse 41" d="M5,0a5,5,0,1,0,5,5A5,5,0,0,0,5,0M5-4A9,9,0,1,1-4,5,9.01,9.01,0,0,1,5-4Z" transform="translate(342 609)" fill="#acbfc6"/>
        <rect id="Retângulo_58" data-name="Retângulo 58" width="90" height="6" rx="3" transform="translate(338 637)" fill="#acbfc6"/>
        <rect id="Retângulo_59" data-name="Retângulo 59" width="90" height="6" rx="3" transform="translate(338 657)" fill="#acbfc6"/>
        <rect id="Retângulo_60" data-name="Retângulo 60" width="90" height="6" rx="3" transform="translate(338 677)" fill="#acbfc6"/>
        <rect id="Retângulo_61" data-name="Retângulo 61" width="90" height="6" rx="3" transform="translate(338 697)" fill="#acbfc6"/>
        <rect id="Retângulo_62" data-name="Retângulo 62" width="90" height="6" rx="3" transform="translate(338 717)" fill="#acbfc6"/>
        <rect id="Retângulo_63" data-name="Retângulo 63" width="40" height="6" rx="3" transform="translate(338 737)" fill="#acbfc6"/>
        <path id="Subtração_3" data-name="Subtração 3" d="M-2584,302h-73a10.012,10.012,0,0,1-10-10V125a10.011,10.011,0,0,1,10-10h120a10.011,10.011,0,0,1,10,10V258h-5V125a5.006,5.006,0,0,0-5-5h-120a5.006,5.006,0,0,0-5,5V292a5.006,5.006,0,0,0,5,5h73v5Z" transform="translate(2980 468)" fill="#acbfc6"/>
      </g>
    </g>
    <g id="Grupo_3" data-name="Grupo 3" transform="translate(53.372 -167.604) rotate(17)">
      <rect id="Retângulo_65" data-name="Retângulo 65" width="140" height="187" rx="10" transform="translate(813 583)" fill="#e1e5e6"/>
      <path id="Subtração_4" data-name="Subtração 4" d="M-2537,302h-120a10.012,10.012,0,0,1-10-10V125a10.011,10.011,0,0,1,10-10h120a10.011,10.011,0,0,1,10,10v16h-5V125a5.006,5.006,0,0,0-5-5h-120a5.006,5.006,0,0,0-5,5V292a5.006,5.006,0,0,0,5,5h120a5.006,5.006,0,0,0,5-5V277h5v15A10.012,10.012,0,0,1-2537,302Z" transform="translate(3480 468)" fill="#acbfc6"/>
    </g>
    <g id="Grupo_6" data-name="Grupo 6">
      <rect id="Retângulo_47" data-name="Retângulo 47" width="140" height="187" rx="10" transform="translate(563 583)" fill="#e1e5e6"/>
      <g id="Grupo_5" data-name="Grupo 5">
        <g id="Grupo_1" data-name="Grupo 1">
          <rect id="Retângulo_48" data-name="Retângulo 48" width="84" height="6" rx="3" transform="translate(592 667)" fill="#acbfc6"/>
          <rect id="Retângulo_49" data-name="Retângulo 49" width="30" height="6" rx="3" transform="translate(592 690)" fill="#acbfc6"/>
          <rect id="Retângulo_50" data-name="Retângulo 50" width="30" height="6" rx="3" transform="translate(634 690)" fill="#acbfc6"/>
          <rect id="Retângulo_51" data-name="Retângulo 51" width="50" height="6" rx="3" transform="translate(591 713)" fill="#acbfc6"/>
          <rect id="Retângulo_52" data-name="Retângulo 52" width="20" height="6" rx="3" transform="translate(591 737)" fill="#acbfc6"/>
          <rect id="Retângulo_53" data-name="Retângulo 53" width="15" height="6" rx="3" transform="translate(615 737)" fill="#acbfc6"/>
          <path id="União_1" data-name="União 1" d="M-2648.721,155.475V141.113h-14.362A3.917,3.917,0,0,1-2667,137.2a3.916,3.916,0,0,1,3.917-3.917h14.362V118.917A3.916,3.916,0,0,1-2644.8,115a3.917,3.917,0,0,1,3.918,3.917v14.362h14.362a3.917,3.917,0,0,1,3.917,3.917,3.917,3.917,0,0,1-3.917,3.917h-14.362v14.362a3.918,3.918,0,0,1-3.918,3.917A3.917,3.917,0,0,1-2648.721,155.475Z" transform="translate(2601.171 2403.423) rotate(45)" fill="#acbfc6"/>
        </g>
        <path id="Subtração_2" data-name="Subtração 2" d="M-2523,302h-120a10.012,10.012,0,0,1-10-10V150h5V292a5.006,5.006,0,0,0,5,5h120a5.006,5.006,0,0,0,5-5V125a5.006,5.006,0,0,0-5-5h-120a5.006,5.006,0,0,0-5,5v6h-5v-6a10.011,10.011,0,0,1,10-10h120a10.011,10.011,0,0,1,10,10V292A10.012,10.012,0,0,1-2523,302Z" transform="translate(3216 468)" fill="#acbfc6"/>
      </g>
    </g>
    <g id="Grupo_8" data-name="Grupo 8">
      <circle id="Elipse_41-2" data-name="Elipse 41" cx="39.5" cy="39.5" r="39.5" transform="translate(677 704)" fill="#f4f5f7"/>
      <path id="União_2" data-name="União 2" d="M-2535.981,266.818l-30.211-30.211a65.2,65.2,0,0,1-9.812,5.207A64.664,64.664,0,0,1-2601.5,247a64.668,64.668,0,0,1-25.5-5.187,65.264,65.264,0,0,1-20.82-14.144,65.8,65.8,0,0,1-14.037-20.979A66.024,66.024,0,0,1-2667,181a66.025,66.025,0,0,1,5.147-25.691,65.814,65.814,0,0,1,14.037-20.979A65.261,65.261,0,0,1-2627,120.187,64.668,64.668,0,0,1-2601.5,115a64.663,64.663,0,0,1,25.5,5.187,65.264,65.264,0,0,1,20.82,14.143,65.835,65.835,0,0,1,14.037,20.979A66.021,66.021,0,0,1-2536,181a66.019,66.019,0,0,1-5.147,25.69,66.01,66.01,0,0,1-5.288,10.076l30.253,30.253a14,14,0,0,1,0,19.8,13.959,13.959,0,0,1-9.9,4.1A13.956,13.956,0,0,1-2535.981,266.818ZM-2642,180.5a39.544,39.544,0,0,0,39.5,39.5,39.545,39.545,0,0,0,39.5-39.5,39.545,39.545,0,0,0-39.5-39.5A39.544,39.544,0,0,0-2642,180.5Z" transform="translate(3319 563)" fill="#ced9dd"/>
      <g id="Grupo_7" data-name="Grupo 7">
        <path id="Subtração_7" data-name="Subtração 7" d="M-2598.742,137.5h-6.213A23.581,23.581,0,0,0-2627.5,121a24.15,24.15,0,0,0-4.411.406l-3.035-5.475A30.066,30.066,0,0,1-2627.5,115a29.753,29.753,0,0,1,11.482,2.279,29.452,29.452,0,0,1,9.377,6.215,28.864,28.864,0,0,1,6.322,9.218,28.535,28.535,0,0,1,1.576,4.788Z" transform="translate(3344 600)" fill="#acbfc6"/>
        <path id="Elipse_45" data-name="Elipse 45" d="M39.5,5A34.51,34.51,0,0,0,26.073,71.291,34.51,34.51,0,0,0,52.927,7.709,34.279,34.279,0,0,0,39.5,5m0-5A39.5,39.5,0,1,1,0,39.5,39.5,39.5,0,0,1,39.5,0Z" transform="translate(677 704)" fill="#acbfc6"/>
      </g>
    </g>
  </g>
</svg>
