<svg xmlns="http://www.w3.org/2000/svg" width="164.941" height="172.174" viewBox="0 0 164.941 172.174">
  <g id="Grupo_8" data-name="Grupo 8" transform="translate(-558 -677.151)">
    <g id="_x35_" transform="translate(576.476 701)">
      <path id="_x34__4_" d="M62.958,70.453v.012a11.3,11.3,0,0,0,1.134,0C63.815,70.465,63.445,70.465,62.958,70.453Zm1.135.012c.775.012.937,0,.937,0v-.012C64.66,70.453,64.359,70.465,64.093,70.465Zm.937-.012v.012s-.162.012-.937,0C64.359,70.465,64.66,70.453,65.03,70.453ZM48.483,68.317l-2.839-.12s-6.128,0-8.509,6.894c-4.551-19.1,1.585-26.684,5.482-29.462A68.492,68.492,0,0,0,48.483,68.317Zm15.61,2.148a11.3,11.3,0,0,1-1.134,0v-.012C63.445,70.465,63.815,70.465,64.093,70.465Zm26.771,4.626C88.483,68.2,82.355,68.2,82.355,68.2l-2.839.12a68.47,68.47,0,0,0,5.865-22.688C89.28,48.408,95.416,55.993,90.864,75.091ZM64,45.915a12.07,12.07,0,1,1,12.07-12.07A12.084,12.084,0,0,1,64,45.915Zm0-20.667a8.6,8.6,0,1,0,8.6,8.6A8.608,8.608,0,0,0,64,25.248Zm-5.735,8.6A5.734,5.734,0,1,1,64,39.58,5.734,5.734,0,0,1,58.266,33.846ZM65.146.393,64.579,0h-1.25l-.475.393c-.822.671-19.858,16.78-17.81,45.364A70.808,70.808,0,0,0,51.05,69.006c.208.463.4.926.625,1.389L47.6,77.547h3l-3,5.265H61.014V79.34H53.573l1.018-1.794h6.423V74.074H53.573l1.3-2.2h.012c3.437.162,6.133.266,8.031.312.5.012.891.012,1.18.012.208,0,.44,0,.706-.012h.266c1.678-.046,3.958-.127,6.793-.255l1.18,2.141h-7.43v3.472H72.03l1.007,1.794h-7.43v3.472H79.02l-3-5.265h3L75.7,71.715l.428-.891c.289-.6.555-1.215.822-1.805a79.08,79.08,0,0,0,4.085-11.735,63.881,63.881,0,0,0,1.921-11.526C85,17.174,65.967,1.065,65.146.393ZM65.03,70.465s-.162.012-.937,0a11.3,11.3,0,0,1-1.134,0v-.012c.486.012.856.012,1.134.012s.567-.012.937-.012ZM79.484,45.5A67.088,67.088,0,0,1,73.767,67.63l-.347.764c-3.622.162-6.457.278-8.425.324h-.266c-.6.012-.949.023-1.724,0-1.979-.046-4.8-.162-8.425-.324-.116-.255-.231-.521-.347-.775A66.949,66.949,0,0,1,48.516,45.5a52.526,52.526,0,0,1,7.14-30.6A20.978,20.978,0,0,0,64,16.6a22.276,22.276,0,0,0,8.321-1.736,52.632,52.632,0,0,1,7.3,26.733C79.623,42.865,79.577,44.172,79.484,45.5ZM63.445,128a112.879,112.879,0,0,0-9.406-17.727c-9.6-15.28-2.761-26.195-2.466-26.653l2.916,1.885-1.458-.943,1.462.936c-.244.385-5.882,9.6,2.486,22.928a134.44,134.44,0,0,1,6.793,11.747c1.321-2.466,3.49-6.152,7-11.747C79.207,95,73.327,85.6,73.266,85.505l2.916-1.885c.295.458,7.13,11.372-2.466,26.653C67.183,120.675,63.445,128,63.445,128ZM70.3,85.713s3.931,6.08-1.468,14.676-5.14,9.225-5.14,9.225.629-.629-4.77-9.225-1.468-14.676-1.468-14.676Z" fill="#d0d0da"/>
    </g>
    <g id="Grupo_7" data-name="Grupo 7" transform="translate(4.651 1)">
      <path id="Icon_metro-plus" data-name="Icon metro-plus" d="M9.014,4.422H6.728V2.136a.208.208,0,0,0-.208-.208H5.273a.208.208,0,0,0-.208.208V4.422H2.779a.208.208,0,0,0-.208.208V5.877a.208.208,0,0,0,.208.208H5.065V8.371a.208.208,0,0,0,.208.208H6.52a.208.208,0,0,0,.208-.208V6.085H9.014a.208.208,0,0,0,.208-.208V4.63A.208.208,0,0,0,9.014,4.422Z" transform="translate(550.778 744.421)" fill="#d0d0da"/>
      <path id="Icon_metro-plus-2" data-name="Icon metro-plus" d="M9.014,4.422H6.728V2.136a.208.208,0,0,0-.208-.208H5.273a.208.208,0,0,0-.208.208V4.422H2.779a.208.208,0,0,0-.208.208V5.877a.208.208,0,0,0,.208.208H5.065V8.371a.208.208,0,0,0,.208.208H6.52a.208.208,0,0,0,.208-.208V6.085H9.014a.208.208,0,0,0,.208-.208V4.63A.208.208,0,0,0,9.014,4.422Z" transform="translate(587.813 707.549)" fill="#d0d0da"/>
      <path id="Icon_metro-plus-3" data-name="Icon metro-plus" d="M9.014,4.422H6.728V2.136a.208.208,0,0,0-.208-.208H5.273a.208.208,0,0,0-.208.208V4.422H2.779a.208.208,0,0,0-.208.208V5.877a.208.208,0,0,0,.208.208H5.065V8.371a.208.208,0,0,0,.208.208H6.52a.208.208,0,0,0,.208-.208V6.085H9.014a.208.208,0,0,0,.208-.208V4.63A.208.208,0,0,0,9.014,4.422Z" transform="translate(584.488 764.072)" fill="#d0d0da"/>
      <path id="Icon_metro-plus-4" data-name="Icon metro-plus" d="M9.014,4.422H6.728V2.136a.208.208,0,0,0-.208-.208H5.273a.208.208,0,0,0-.208.208V4.422H2.779a.208.208,0,0,0-.208.208V5.877a.208.208,0,0,0,.208.208H5.065V8.371a.208.208,0,0,0,.208.208H6.52a.208.208,0,0,0,.208-.208V6.085H9.014a.208.208,0,0,0,.208-.208V4.63A.208.208,0,0,0,9.014,4.422Z" transform="translate(620.778 839.746)" fill="#d0d0da"/>
      <path id="Icon_metro-plus-5" data-name="Icon metro-plus" d="M9.014,4.422H6.728V2.136a.208.208,0,0,0-.208-.208H5.273a.208.208,0,0,0-.208.208V4.422H2.779a.208.208,0,0,0-.208.208V5.877a.208.208,0,0,0,.208.208H5.065V8.371a.208.208,0,0,0,.208.208H6.52a.208.208,0,0,0,.208-.208V6.085H9.014a.208.208,0,0,0,.208-.208V4.63A.208.208,0,0,0,9.014,4.422Z" transform="translate(571.162 803.421)" fill="#d0d0da"/>
      <path id="Icon_metro-plus-6" data-name="Icon metro-plus" d="M9.014,4.422H6.728V2.136a.208.208,0,0,0-.208-.208H5.273a.208.208,0,0,0-.208.208V4.422H2.779a.208.208,0,0,0-.208.208V5.877a.208.208,0,0,0,.208.208H5.065V8.371a.208.208,0,0,0,.208.208H6.52a.208.208,0,0,0,.208-.208V6.085H9.014a.208.208,0,0,0,.208-.208V4.63A.208.208,0,0,0,9.014,4.422Z" transform="translate(620.778 674.223)" fill="#d0d0da"/>
      <path id="Icon_metro-plus-7" data-name="Icon metro-plus" d="M9.014,4.422H6.728V2.136a.208.208,0,0,0-.208-.208H5.273a.208.208,0,0,0-.208.208V4.422H2.779a.208.208,0,0,0-.208.208V5.877a.208.208,0,0,0,.208.208H5.065V8.371a.208.208,0,0,0,.208.208H6.52a.208.208,0,0,0,.208-.208V6.085H9.014a.208.208,0,0,0,.208-.208V4.63A.208.208,0,0,0,9.014,4.422Z" transform="translate(673.388 741.095)" fill="#d0d0da"/>
      <path id="Icon_metro-plus-8" data-name="Icon metro-plus" d="M9.014,4.422H6.728V2.136a.208.208,0,0,0-.208-.208H5.273a.208.208,0,0,0-.208.208V4.422H2.779a.208.208,0,0,0-.208.208V5.877a.208.208,0,0,0,.208.208H5.065V8.371a.208.208,0,0,0,.208.208H6.52a.208.208,0,0,0,.208-.208V6.085H9.014a.208.208,0,0,0,.208-.208V4.63A.208.208,0,0,0,9.014,4.422Z" transform="translate(709.068 787.746)" fill="#d0d0da"/>
      <path id="Icon_metro-plus-9" data-name="Icon metro-plus" d="M9.014,4.422H6.728V2.136a.208.208,0,0,0-.208-.208H5.273a.208.208,0,0,0-.208.208V4.422H2.779a.208.208,0,0,0-.208.208V5.877a.208.208,0,0,0,.208.208H5.065V8.371a.208.208,0,0,0,.208.208H6.52a.208.208,0,0,0,.208-.208V6.085H9.014a.208.208,0,0,0,.208-.208V4.63A.208.208,0,0,0,9.014,4.422Z" transform="translate(663.056 803.421)" fill="#d0d0da"/>
      <path id="Icon_metro-plus-10" data-name="Icon metro-plus" d="M9.014,4.422H6.728V2.136a.208.208,0,0,0-.208-.208H5.273a.208.208,0,0,0-.208.208V4.422H2.779a.208.208,0,0,0-.208.208V5.877a.208.208,0,0,0,.208.208H5.065V8.371a.208.208,0,0,0,.208.208H6.52a.208.208,0,0,0,.208-.208V6.085H9.014a.208.208,0,0,0,.208-.208V4.63A.208.208,0,0,0,9.014,4.422Z" transform="translate(686.429 701.072)" fill="#d0d0da"/>
    </g>
  </g>
</svg>
